<svg width="76" height="35" viewBox="0 0 76 35" fill="none" xmlns="http://www.w3.org/2000/svg">
<path d="M14.2011 4.4498C14.2011 6.90736 16.1933 8.8996 18.6509 8.8996C21.1085 8.8996 23.1007 6.90736 23.1007 4.4498C23.1007 1.99224 21.1085 2.37573e-08 18.6509 5.30633e-08C16.1933 8.23694e-08 14.2011 1.99224 14.2011 4.4498Z" fill="#0B6CFF"/>
<path d="M27.1368 4.4498C27.1368 6.90736 29.129 8.8996 31.5866 8.8996C34.0441 8.8996 36.0364 6.90736 36.0364 4.4498C36.0364 1.99224 34.0441 2.37573e-08 31.5866 5.30633e-08C29.129 8.23694e-08 27.1368 1.99224 27.1368 4.4498Z" fill="#0B6CFF"/>
<path d="M0.687068 4.59702C0.687068 7.05458 2.67931 9.04682 5.13687 9.04682C7.59443 9.04682 9.58667 7.05457 9.58667 4.59702C9.58667 2.13946 7.59443 0.147217 5.13687 0.147217C2.67931 0.147217 0.687068 2.13946 0.687068 4.59702Z" fill="#0B6CFF"/>
<path d="M53.5864 4.4498C53.5864 6.90736 55.5786 8.8996 58.0362 8.8996C60.4937 8.8996 62.486 6.90736 62.486 4.4498C62.486 1.99224 60.4937 2.37573e-08 58.0362 5.30633e-08C55.5786 8.23694e-08 53.5864 1.99224 53.5864 4.4498Z" fill="#0B6CFF"/>
<path d="M66.522 4.4498C66.522 6.90736 68.5143 8.8996 70.9718 8.8996C73.4294 8.8996 75.4216 6.90736 75.4216 4.4498C75.4216 1.99224 73.4294 2.37573e-08 70.9718 5.30633e-08C68.5143 8.23694e-08 66.522 1.99224 66.522 4.4498Z" fill="#0B6CFF"/>
<path d="M40.0723 4.59702C40.0723 7.05458 42.0646 9.04682 44.5221 9.04682C46.9797 9.04682 48.9719 7.05457 48.9719 4.59702C48.9719 2.13946 46.9797 0.147217 44.5221 0.147217C42.0646 0.147217 40.0723 2.13946 40.0723 4.59702Z" fill="#0B6CFF"/>
<path d="M14.7795 30.3211C14.7795 32.7787 16.7717 34.7709 19.2293 34.7709C21.6868 34.7709 23.6791 32.7787 23.6791 30.3211C23.6791 27.8636 21.6868 25.8713 19.2293 25.8713C16.7717 25.8713 14.7795 27.8636 14.7795 30.3211Z" fill="#0B6CFF"/>
<path d="M27.715 30.3211C27.715 32.7787 29.7073 34.7709 32.1648 34.7709C34.6224 34.7709 36.6146 32.7787 36.6146 30.3211C36.6146 27.8636 34.6224 25.8713 32.1648 25.8713C29.7073 25.8713 27.715 27.8636 27.715 30.3211Z" fill="#0B6CFF"/>
<path d="M1.26544 30.4684C1.26544 32.9259 3.25768 34.9182 5.71524 34.9182C8.1728 34.9182 10.165 32.9259 10.165 30.4684C10.165 28.0108 8.1728 26.0186 5.71524 26.0186C3.25768 26.0186 1.26544 28.0108 1.26544 30.4684Z" fill="#0B6CFF"/>
<path d="M54.1647 30.3211C54.1647 32.7787 56.157 34.7709 58.6145 34.7709C61.0721 34.7709 63.0643 32.7787 63.0643 30.3211C63.0643 27.8636 61.0721 25.8713 58.6145 25.8713C56.157 25.8713 54.1647 27.8636 54.1647 30.3211Z" fill="#0B6CFF"/>
<path d="M67.1004 30.3211C67.1004 32.7787 69.0926 34.7709 71.5502 34.7709C74.0078 34.7709 76 32.7787 76 30.3211C76 27.8636 74.0078 25.8713 71.5502 25.8713C69.0926 25.8713 67.1004 27.8636 67.1004 30.3211Z" fill="#0B6CFF"/>
<path d="M40.6507 30.4684C40.6507 32.9259 42.6429 34.9182 45.1005 34.9182C47.558 34.9182 49.5503 32.9259 49.5503 30.4684C49.5503 28.0108 47.558 26.0186 45.1005 26.0186C42.6429 26.0186 40.6507 28.0108 40.6507 30.4684Z" fill="#0B6CFF"/>
<path d="M14.7795 17.3855C14.7795 19.843 16.7717 21.8353 19.2293 21.8353C21.6868 21.8353 23.6791 19.843 23.6791 17.3855C23.6791 14.9279 21.6868 12.9357 19.2293 12.9357C16.7717 12.9357 14.7795 14.9279 14.7795 17.3855Z" fill="#0B6CFF"/>
<path d="M27.715 17.3855C27.715 19.843 29.7073 21.8353 32.1648 21.8353C34.6224 21.8353 36.6146 19.843 36.6146 17.3855C36.6146 14.9279 34.6224 12.9357 32.1648 12.9357C29.7073 12.9357 27.715 14.9279 27.715 17.3855Z" fill="#0B6CFF"/>
<path d="M1.26544 17.5327C1.26544 19.9902 3.25768 21.9825 5.71524 21.9825C8.1728 21.9825 10.165 19.9902 10.165 17.5327C10.165 15.0751 8.1728 13.0829 5.71524 13.0829C3.25768 13.0829 1.26544 15.0751 1.26544 17.5327Z" fill="#0B6CFF"/>
<path d="M54.1647 17.3855C54.1647 19.843 56.157 21.8353 58.6145 21.8353C61.0721 21.8353 63.0643 19.843 63.0643 17.3855C63.0643 14.9279 61.0721 12.9357 58.6145 12.9357C56.157 12.9357 54.1647 14.9279 54.1647 17.3855Z" fill="#0B6CFF"/>
<path d="M67.1004 17.3855C67.1004 19.843 69.0926 21.8353 71.5502 21.8353C74.0078 21.8353 76 19.843 76 17.3855C76 14.9279 74.0078 12.9357 71.5502 12.9357C69.0926 12.9357 67.1004 14.9279 67.1004 17.3855Z" fill="#0B6CFF"/>
<path d="M40.6507 17.5327C40.6507 19.9902 42.6429 21.9825 45.1005 21.9825C47.558 21.9825 49.5503 19.9902 49.5503 17.5327C49.5503 15.0751 47.558 13.0829 45.1005 13.0829C42.6429 13.0829 40.6507 15.0751 40.6507 17.5327Z" fill="#0B6CFF"/>
</svg>
