<svg width="32" height="28" viewBox="0 0 32 28" fill="none" xmlns="http://www.w3.org/2000/svg">
<path d="M16.0319 27.247C15.9399 27.247 15.8469 27.212 15.7769 27.142L3.0079 14.373C1.5009 12.866 0.670898 10.867 0.670898 8.74395C0.670898 6.60495 1.5009 4.59695 3.0079 3.08895C4.5139 1.58295 6.5159 0.753953 8.6469 0.751953H8.6489C10.7809 0.751953 12.7849 1.58195 14.2919 3.08895L16.0319 4.82895L17.7719 3.08895C19.2789 1.58195 21.2829 0.751953 23.4139 0.751953C23.4169 0.751953 23.4189 0.751953 23.4219 0.751953C25.5499 0.753953 27.5509 1.58395 29.0569 3.08895C30.5639 4.59695 31.3939 6.59995 31.3939 8.73095C31.3939 10.862 30.5639 12.865 29.0569 14.373L16.2869 27.142C16.2159 27.212 16.1239 27.247 16.0319 27.247Z" fill="#DF1717"/>
</svg>
