<svg width="31" height="26" viewBox="0 0 31 26" fill="none" xmlns="http://www.w3.org/2000/svg">
<path d="M15.4995 25.495C15.4127 25.495 15.3249 25.4626 15.2588 25.3979L3.20594 13.5928C1.78345 12.1996 1 10.3515 1 8.38872C1 6.41118 1.78345 4.55476 3.20594 3.16059C4.62748 1.76827 6.5172 1.00185 8.52869 1H8.53058C10.543 1 12.4346 1.76735 13.8571 3.16059L15.4995 4.76924L17.1419 3.16059C18.5644 1.76735 20.456 1 22.4675 1C22.4704 1 22.4723 1 22.4751 1C24.4837 1.00185 26.3725 1.7692 27.7941 3.16059C29.2165 4.55476 30 6.40656 30 8.3767C30 10.3468 29.2165 12.1986 27.7941 13.5928L15.7402 25.3979C15.6732 25.4626 15.5864 25.495 15.4995 25.495Z" stroke="black"/>
</svg>
